<?xml version="1.0" encoding="utf-8"?>
<!-- Generator: Adobe Illustrator 24.0.1, SVG Export Plug-In . SVG Version: 6.00 Build 0)  -->
<svg version="1.1" id="Layer_1" xmlns="http://www.w3.org/2000/svg" xmlns:xlink="http://www.w3.org/1999/xlink" x="0px" y="0px"
	 viewBox="0 0 130 105" style="enable-background:new 0 0 130 105;" xml:space="preserve">
<style type="text/css">
	.st0{fill:#3C3C3B;}
</style>
<g>
	<g>
		<path class="st0" d="M120.1,47.9c-6,0-10.5,4.3-10.6,10.3c0,6,4.4,10.4,11.1,10.5c3.5,0,6.3-1.1,8.2-3.2l-2.5-2.9
			c-1.4,1.5-3.2,2.2-5.5,2.2c-3.5,0-6-2-6.5-4.9l15.9,0.1c0-0.5,0.1-1,0.1-1.4C130.3,52.1,126,48,120.1,47.9 M114.3,56.6
			c0.5-3,2.7-4.9,5.8-4.9c3.1,0,5.3,2.1,5.7,4.9L114.3,56.6z"/>
		<path class="st0" d="M97.4,47.8c-3,0-5.4,1-7,2.8V48l-4.5,0l-0.1,20.2l4.7,0L90.6,58c0-4.1,2.3-6.1,5.7-6.1c3,0,4.8,1.8,4.8,5.4
			l-0.1,11l4.7,0l0.1-11.6C105.8,50.6,102.2,47.8,97.4,47.8"/>
		
			<rect x="67.9" y="55.6" transform="matrix(7.218709e-03 -1 1 7.218709e-03 19.4362 135.551)" class="st0" width="20.2" height="4.7"/>
		<path class="st0" d="M62.1,47.5c-3.2,0-6,1.3-7.6,3.3c-1.4-2.3-3.8-3.4-6.8-3.4c-2.8,0-5.1,1-6.7,2.8l0-2.6h-4.5l-0.1,20.2l4.7,0
			l0.1-10.2c0-4,2.2-6.1,5.3-6c2.9,0,4.6,1.8,4.5,5.4l-0.1,11l4.7,0l0.1-10.3c0-4,2.2-6,5.3-6c2.9,0,4.5,1.8,4.5,5.4l-0.1,11l4.7,0
			l0.1-11.6C70.4,50.3,67,47.5,62.1,47.5"/>
		<path class="st0" d="M89.4,16C87.9,5.9,71.9,1.1,63,0.2v0c-1.4-0.2-5.7-0.5-11.4,0C18.1,3.4-0.2,27.1-0.3,53h0c0,0,0,0.1,0,0.1
			c0,0,0,0.1,0,0.1h0c0.2,25.9,20.1,51.3,53,52c6.7,0.1,10-0.3,10.6-0.4l-0.2-1.2c-0.5,0.1-2.6,0.3-3.4,0.3
			c-16.4,0.9-28.7-8.3-35.2-26.4c-2.3-7-7.3-28.7-0.7-50.2C29.4,8.8,42.9,1.2,59.6,1.9c0.6,0,2.8,0.1,3.9,0.2
			c4.8,0.5,10,1.8,14.9,4.5c-0.1,0-0.1,0-0.2,0c-0.6,0-1.2,0.1-1.8,0.2c-5.4,0.9-9.6,5.6-9.6,11.3c0,6.3,5.1,11.4,11.4,11.4
			c6.3,0,11.4-5.1,11.4-11.4C89.6,17.3,89.5,16.7,89.4,16"/>
		<path class="st0" d="M81.3,93v2.8c-0.7,0.5-2,0.9-2.9,0.9c-2.1,0-3.6-1.5-3.6-3.4c0-2,1.6-3.4,3.8-3.4c1,0,2.2,0.4,2.9,1l-1.3,1.5
			c-0.4-0.4-1.1-0.7-1.7-0.7c-0.9,0-1.5,0.7-1.5,1.6c0,0.9,0.6,1.6,1.5,1.6c0.2,0,0.6-0.1,0.9-0.2V93H81.3z"/>
		<polygon class="st0" points="85.8,91.5 85.8,92.3 88.9,92.3 88.9,94 85.8,94 85.8,94.8 89.3,94.8 89.3,96.5 83.6,96.5 83.6,89.8 
			89.2,89.8 89.2,91.5 		"/>
		<polygon class="st0" points="96.2,96.5 93.6,93.1 93.6,96.5 91.6,96.5 91.6,89.8 93.4,89.8 96.1,93.2 96.1,89.8 98.1,89.8 
			98.1,96.5 		"/>
		<polygon class="st0" points="103.3,94.2 102.7,94.9 102.7,96.5 100.5,96.5 100.5,89.8 102.7,89.8 102.7,92.1 104.7,89.8 
			107.2,89.8 104.9,92.5 107.4,96.5 104.7,96.5 		"/>
	</g>
</g>
</svg>
